<?xml version="1.0" encoding="UTF-8" standalone="no"?>
<!-- Uploaded to: SVG Repo, www.svgrepo.com, Generator: SVG Repo Mixer Tools -->

<svg
   fill="#000000"
   width="14.5453"
   height="15.999998"
   viewBox="0 0 0.43635898 0.47999993"
   version="1.1"
   id="svg99"
   xmlns="http://www.w3.org/2000/svg"
   xmlns:svg="http://www.w3.org/2000/svg">
  <defs
     id="defs103" />
  <path
     d="m 0.1245117,0.16815273 -0.05002909,0.0500291 h 0.25278545 a 0.0218182,0.0218182 0 0 1 0,0.0436364 H 0.07448261 l 0.05002909,0.050029 A 0.02181818,0.02181818 0 1 1 0.0936608,0.34269817 L 0.00638806,0.25542546 a 0.02181818,0.02181818 0 0 1 0,-0.0308509 L 0.0936608,0.13730182 a 0.02181818,0.02181818 0 1 1 0.0308509,0.0308509 z M 0.41454078,0 H 0.23999533 a 0.02181819,0.02181819 0 0 0 0,0.04363637 H 0.3927226 V 0.43636364 H 0.23999533 a 0.02181818,0.02181818 0 0 0 0,0.0436363 h 0.17454545 a 0.02181818,0.02181818 0 0 0 0.0218182,-0.0218182 V 0.02181818 A 0.02181818,0.02181818 0 0 0 0.41454078,0 Z"
     id="path97"
     style="stroke-width:0.0218182" />
</svg>
