<?xml version="1.0" encoding="UTF-8" standalone="no"?>
<!-- Uploaded to: SVG Repo, www.svgrepo.com, Generator: SVG Repo Mixer Tools -->

<svg
   width="13.999627"
   height="13.999999"
   viewBox="0 0 0.41998881 0.41999997"
   fill="none"
   version="1.1"
   id="svg513"
   sodipodi:docname="close.svg"
   inkscape:version="1.2.2 (b0a8486541, 2022-12-01)"
   inkscape:export-filename="../../public/images/close.png"
   inkscape:export-xdpi="96"
   inkscape:export-ydpi="96"
   xmlns:inkscape="http://www.inkscape.org/namespaces/inkscape"
   xmlns:sodipodi="http://sodipodi.sourceforge.net/DTD/sodipodi-0.dtd"
   xmlns="http://www.w3.org/2000/svg"
   xmlns:svg="http://www.w3.org/2000/svg">
  <defs
     id="defs517" />
  <sodipodi:namedview
     id="namedview515"
     pagecolor="#ffffff"
     bordercolor="#666666"
     borderopacity="1.0"
     inkscape:showpageshadow="2"
     inkscape:pageopacity="0.0"
     inkscape:pagecheckerboard="0"
     inkscape:deskcolor="#d1d1d1"
     showgrid="false"
     inkscape:zoom="24.211336"
     inkscape:cx="-4.4194174"
     inkscape:cy="6.8562924"
     inkscape:window-width="1920"
     inkscape:window-height="1048"
     inkscape:window-x="0"
     inkscape:window-y="-5"
     inkscape:window-maximized="1"
     inkscape:current-layer="svg513" />
  <path
     style="color:#000000;fill:#8e8e8e;stroke-width:0.0700018;stroke-linecap:round;stroke-linejoin:round;-inkscape-stroke:none;fill-opacity:1"
     d="m 0.06999204,0 a 0.07000188,0.07000188 0 0 0 -0.04949492,0.02050837 0.07000188,0.07000188 0 0 0 0,0.09898569 l 0.09051161,0.0905116 -0.09051161,0.0905116 a 0.07000188,0.07000188 0 0 0 0,0.0989856 0.07000188,0.07000188 0 0 0 0.09898569,0 l 0.0905116,-0.0905115 0.0905116,0.0905115 a 0.07000188,0.07000188 0 0 0 0.0989856,0 0.07000188,0.07000188 0 0 0 0,-0.0989856 l -0.0905115,-0.0905116 0.0905116,-0.0905116 a 0.07000188,0.07000188 0 0 0 0,-0.09898569 A 0.07000188,0.07000188 0 0 0 0.34999681,0 0.07000188,0.07000188 0 0 0 0.30050603,0.02050837 L 0.20999445,0.11101998 0.11948281,0.02050837 A 0.07000188,0.07000188 0 0 0 0.06999204,0 Z"
     id="path342" />
</svg>
