<?xml version="1.0" encoding="UTF-8" standalone="no"?>
<!-- Created with Inkscape (http://www.inkscape.org/) -->

<svg
   width="127.659"
   height="32.000008"
   viewBox="0 0 33.776443 8.4666687"
   version="1.1"
   id="svg2645"
   xml:space="preserve"
   sodipodi:docname="login-method-logos.svg"
   inkscape:export-filename="../../public/images/login-method-logos.png"
   inkscape:export-xdpi="95.999977"
   inkscape:export-ydpi="95.999977"
   inkscape:version="1.2.2 (b0a8486541, 2022-12-01)"
   xmlns:inkscape="http://www.inkscape.org/namespaces/inkscape"
   xmlns:sodipodi="http://sodipodi.sourceforge.net/DTD/sodipodi-0.dtd"
   xmlns="http://www.w3.org/2000/svg"
   xmlns:svg="http://www.w3.org/2000/svg"><sodipodi:namedview
     id="namedview17"
     pagecolor="#ffffff"
     bordercolor="#666666"
     borderopacity="1.0"
     inkscape:showpageshadow="2"
     inkscape:pageopacity="0.0"
     inkscape:pagecheckerboard="0"
     inkscape:deskcolor="#d1d1d1"
     showgrid="false"
     inkscape:zoom="10.755215"
     inkscape:cx="63.73652"
     inkscape:cy="16.643088"
     inkscape:window-width="1920"
     inkscape:window-height="1048"
     inkscape:window-x="0"
     inkscape:window-y="-5"
     inkscape:window-maximized="1"
     inkscape:current-layer="layer1" /><defs
     id="defs2642" /><g
     id="layer1"
     transform="translate(0.25204638)"><g
       id="icons_Q2"
       data-name="icons Q2"
       transform="matrix(0.21166697,0,0,0.21166697,24.228568,-0.84667898)"
       style="fill:#333333;fill-opacity:1"><path
         d="m 24.7,20.5 v 7.6 h 10.9 a 10.9,10.9 0 0 1 -10.9,8 12.1,12.1 0 1 1 7.9,-21.3 L 38.2,9.2 A 20,20 0 1 0 24.7,44 C 41.5,44 45.2,28.3 43.6,20.5 Z"
         id="path3328"
         style="fill:#333333;fill-opacity:1" /></g><g
       style="fill:#333333;fill-opacity:1"
       id="g3352"
       transform="matrix(0.01889881,0,0,0.01901297,16.076526,-0.63408101)"><path
         d="m 480,257.35 c 0,-123.7 -100.3,-224 -224,-224 -123.7,0 -224,100.3 -224,224 0,111.8 81.9,204.47 189,221.29 V 322.12 H 164.11 V 257.35 H 221 V 208 c 0,-56.13 33.45,-87.16 84.61,-87.16 24.51,0 50.15,4.38 50.15,4.38 v 55.13 H 327.5 c -27.81,0 -36.51,17.26 -36.51,35 v 42 h 62.12 l -9.92,64.77 H 291 V 478.66 C 398.1,461.85 480,369.18 480,257.35 Z"
         fill-rule="evenodd"
         id="path3344"
         style="fill:#333333;fill-opacity:1" /></g><g
       style="fill:#333333;fill-opacity:1"
       id="g3371"
       transform="matrix(0.01890598,0,0,0.01890598,7.6120885,-0.578143)"><path
         d="M 31.87,30.58 H 244.7 V 243.39 H 31.87 Z"
         id="path3354"
         style="fill:#333333;fill-opacity:1" /><path
         d="M 266.89,30.58 H 479.7 V 243.39 H 266.89 Z"
         id="path3356"
         style="fill:#333333;fill-opacity:1" /><path
         d="M 31.87,265.61 H 244.7 v 212.8 H 31.87 Z"
         id="path3358"
         style="fill:#333333;fill-opacity:1" /><path
         d="M 266.89,265.61 H 479.7 v 212.8 H 266.89 Z"
         id="path3360"
         style="fill:#333333;fill-opacity:1" /></g><g
       style="fill:#333333;fill-opacity:1"
       id="g3384"
       transform="matrix(0.24990161,0,0,0.24990161,-60.082771,-57.733796)"><g
         id="g3375"
         transform="translate(239.41813,231.02611)"
         style="fill:#333333;fill-opacity:1">
	<path
   d="m 30.414,10.031 c 0.014,0.297 0.021,0.595 0.021,0.897 0,9.187 -6.992,19.779 -19.779,19.779 -3.928,0 -7.58,-1.149 -10.657,-3.123 0.546,0.063 1.099,0.095 1.658,0.095 3.26,0 6.254,-1.107 8.632,-2.974 C 7.25,24.647 4.682,22.64 3.798,19.877 c 0.424,0.082 0.858,0.125 1.308,0.125 0.635,0 1.248,-0.084 1.83,-0.244 C 3.759,19.119 1.36,16.31 1.36,12.943 c 0,-0.029 0,-0.058 0,-0.087 0.939,0.521 2.01,0.833 3.15,0.869 C 2.646,12.48 1.419,10.35 1.419,7.938 c 0,-1.274 0.343,-2.467 0.94,-3.495 3.427,4.206 8.552,6.973 14.327,7.263 -0.117,-0.509 -0.18,-1.038 -0.18,-1.584 0,-3.838 3.112,-6.949 6.953,-6.949 1.998,0 3.805,0.844 5.07,2.192 1.582,-0.311 3.072,-0.89 4.416,-1.686 -0.521,1.624 -1.621,2.986 -3.057,3.844 1.406,-0.166 2.746,-0.54 3.991,-1.092 -0.93,1.395 -2.108,2.619 -3.465,3.6 z"
   id="path3373"
   style="fill:#333333;fill-opacity:1" />
</g></g></g></svg>
