<?xml version="1.0" encoding="UTF-8" standalone="no"?>
<!-- Created with Inkscape (http://www.inkscape.org/) -->

<svg
   width="110.06146"
   height="32"
   viewBox="0 0 29.120426 8.4666667"
   version="1.1"
   id="svg2294"
   xml:space="preserve"
   inkscape:version="1.2.2 (b0a8486541, 2022-12-01)"
   sodipodi:docname="logo.svg"
   inkscape:export-filename="../../public/images/logo.png"
   inkscape:export-xdpi="96"
   inkscape:export-ydpi="96"
   xmlns:inkscape="http://www.inkscape.org/namespaces/inkscape"
   xmlns:sodipodi="http://sodipodi.sourceforge.net/DTD/sodipodi-0.dtd"
   xmlns="http://www.w3.org/2000/svg"
   xmlns:svg="http://www.w3.org/2000/svg"><sodipodi:namedview
     id="namedview2296"
     pagecolor="#ffffff"
     bordercolor="#666666"
     borderopacity="1.0"
     inkscape:showpageshadow="2"
     inkscape:pageopacity="0.0"
     inkscape:pagecheckerboard="0"
     inkscape:deskcolor="#d1d1d1"
     inkscape:document-units="px"
     showgrid="false"
     inkscape:zoom="6.1005612"
     inkscape:cx="86.385496"
     inkscape:cy="22.129112"
     inkscape:window-width="1920"
     inkscape:window-height="1048"
     inkscape:window-x="0"
     inkscape:window-y="-5"
     inkscape:window-maximized="1"
     inkscape:current-layer="layer1" /><defs
     id="defs2291"><inkscape:path-effect
       effect="perspective-envelope"
       up_left_point="-4.48,131.19"
       up_right_point="38.1,132.69"
       down_left_point="-17.48,172.68"
       down_right_point="34.6,187.48"
       id="path-effect1314"
       is_visible="true"
       lpeversion="1"
       deform_type="perspective"
       horizontal_mirror="false"
       vertical_mirror="false"
       overflow_perspective="false" /></defs><g
     inkscape:label="Layer 1"
     inkscape:groupmode="layer"
     id="layer1"
     transform="translate(109.08568,-113.37566)"><g
       id="g6085"
       transform="translate(-0.09486623)"><g
         aria-label="TREMORS"
         id="text3423"
         style="font-size:55.7155px;line-height:1.25;font-family:'Secular One';-inkscape-font-specification:'Secular One';letter-spacing:0px;word-spacing:0px;fill:#333333;fill-opacity:1;stroke-width:1.3929"
         transform="matrix(0.0802108,0,0,0.0802108,-104.34873,104.61765)"><path
           d="M 48.341361,151.8827 H 38.20114 v -7.02015 h 28.303473 v 7.02015 h -10.02879 v 30.08637 h -8.134462 z"
           id="path3747"
           style="fill:#333333;fill-opacity:1" /><path
           d="m 71.853346,144.86255 q 1.671465,-0.0557 6.240136,-0.0557 4.624386,0 6.295851,0.0557 6.351567,0.22286 9.471635,3.12007 3.120068,2.84149 3.120068,7.68873 0,4.12295 -2.117189,7.02016 -2.061473,2.84149 -5.794412,3.73294 1.170026,0.94716 2.395767,2.61862 1.225741,1.61575 3.398645,5.07011 2.284336,3.62151 4.624387,7.85589 H 90.12803 l -6.295852,-11.70025 q -1.002879,-1.83862 -1.838611,-2.28434 -0.780017,-0.50144 -2.395767,-0.50144 v 14.48603 h -7.744454 z m 11.198815,16.43607 q 2.841491,0 4.45724,-1.4486 1.671465,-1.44861 1.671465,-3.90009 0,-2.22862 -1.448603,-3.39864 -1.448603,-1.17003 -4.234378,-1.17003 H 79.5978 v 9.91736 z"
           id="path3749"
           style="fill:#333333;fill-opacity:1" /><path
           d="m 103.27686,144.86255 h 22.56478 v 7.02015 h -14.59746 v 7.41016 h 12.09026 v 6.79729 h -12.09026 v 8.85877 h 14.59746 v 7.02015 h -22.56478 z"
           id="path3751"
           style="fill:#333333;fill-opacity:1" /><path
           d="m 140.94057,155.78279 -2.34005,26.18628 h -7.1873 l 3.51008,-37.10652 h 10.02879 l 9.47163,26.63201 9.19306,-26.63201 h 10.02879 l 3.39865,37.10652 h -7.24302 l -2.56291,-26.07485 -9.80593,26.46486 -6.63014,0.61287 z"
           id="path3753"
           style="fill:#333333;fill-opacity:1" /><path
           d="m 200.33326,182.69337 q -5.46012,0 -9.63878,-2.39576 -4.17867,-2.39577 -6.51872,-6.74158 -2.28433,-4.34581 -2.28433,-9.97307 0,-5.68299 2.28433,-10.02879 2.28434,-4.34581 6.463,-6.74158 4.17866,-2.39577 9.6945,-2.39577 5.46012,0 9.63878,2.39577 4.17866,2.34005 6.463,6.63014 2.28433,4.2901 2.28433,9.91736 0,5.7387 -2.28433,10.14022 -2.28434,4.34581 -6.463,6.7973 -4.17866,2.39576 -9.63878,2.39576 z m 0,-7.07587 q 4.56867,0 7.29873,-3.28721 2.78577,-3.28722 2.78577,-8.74733 0,-3.5658 -1.28145,-6.29586 -1.22574,-2.78577 -3.5658,-4.23437 -2.28433,-1.50432 -5.23725,-1.50432 -2.95292,0 -5.29297,1.50432 -2.28434,1.4486 -3.5658,4.23437 -1.22574,2.73006 -1.22574,6.29586 0,3.56579 1.22574,6.29585 1.28146,2.73006 3.5658,4.23437 2.28433,1.50432 5.29297,1.50432 z"
           id="path3755"
           style="fill:#333333;fill-opacity:1" /><path
           d="m 224.62517,144.86255 q 1.67147,-0.0557 6.24014,-0.0557 4.62438,0 6.29585,0.0557 6.35157,0.22286 9.47163,3.12007 3.12007,2.84149 3.12007,7.68873 0,4.12295 -2.11719,7.02016 -2.06147,2.84149 -5.79441,3.73294 1.17003,0.94716 2.39577,2.61862 1.22574,1.61575 3.39864,5.07011 2.28434,3.62151 4.62439,7.85589 h -9.3602 L 236.604,170.26882 q -1.00288,-1.83862 -1.83861,-2.28434 -0.78001,-0.50144 -2.39576,-0.50144 v 14.48603 h -7.74446 z m 11.19882,16.43607 q 2.84149,0 4.45724,-1.4486 1.67146,-1.44861 1.67146,-3.90009 0,-2.22862 -1.4486,-3.39864 -1.4486,-1.17003 -4.23438,-1.17003 h -3.90008 v 9.91736 z"
           id="path3757"
           style="fill:#333333;fill-opacity:1" /><path
           d="m 265.85461,182.69337 q -3.23149,0 -6.18442,-0.7243 -2.8972,-0.7243 -5.01439,-1.95004 l 0.66859,-7.46588 q 2.50719,1.56003 5.23725,2.45148 2.78578,0.83574 5.12583,0.83574 2.67434,0 4.34581,-1.11431 1.67146,-1.11431 1.67146,-2.95293 0,-1.50431 -1.11431,-2.28433 -1.11431,-0.83573 -3.51007,-1.7829 l -1.33718,-0.55715 q -0.27857,-0.11143 -0.61287,-0.22286 -0.33429,-0.16715 -0.78001,-0.3343 -3.12007,-1.28145 -5.0144,-2.39576 -1.89433,-1.17003 -3.28721,-3.2315 -1.33718,-2.06148 -1.33718,-5.34869 0,-5.34869 3.62151,-8.41304 3.62151,-3.06435 10.08451,-3.06435 4.90296,0 10.02879,2.00575 l -1.22574,7.35445 q -2.06148,-1.17003 -4.45724,-1.83861 -2.34005,-0.66859 -4.45724,-0.66859 -2.61863,0 -4.06723,1.0586 -1.44861,1.00288 -1.44861,2.73006 0,1.50431 1.00288,2.34005 1.00288,0.83573 3.2315,1.78289 l 2.28434,0.89145 q 3.23149,1.22574 5.34868,2.39577 2.11719,1.17002 3.62151,3.39864 1.50432,2.17291 1.50432,5.68298 0,5.40441 -3.67722,8.41304 -3.67723,3.00864 -10.25166,3.00864 z"
           id="path3759"
           style="fill:#333333;fill-opacity:1" /></g><g
         id="g1414"
         style="fill:#0084ff;fill-opacity:1"
         transform="matrix(0.0802108,0,0,0.0802108,-104.56582,104.61765)"
         inkscape:export-filename="../../../tmp/tremors-ico.png"
         inkscape:export-xdpi="50.049999"
         inkscape:export-ydpi="50.049999"><path
           style="color:#000000;fill:#0084ff;fill-opacity:1;fill-rule:evenodd;stroke-linecap:round;-inkscape-stroke:none"
           d="m 2.703125,129.48633 c -17.906902,0 -32.478516,14.57161 -32.478516,32.47851 0,17.90691 14.571614,32.47852 32.478516,32.47852 17.906902,0 32.480469,-14.57161 32.480469,-32.47852 0,-17.9069 -14.573567,-32.47851 -32.480469,-32.47851 z m 0,5.18164 C 17.809145,134.66797 30,146.85882 30,161.96484 c 0,15.10602 -12.190855,27.29688 -27.296875,27.29688 -15.10602,0 -27.294922,-12.19086 -27.294922,-27.29688 0,-15.10602 12.188902,-27.29687 27.294922,-27.29687 z"
           id="path457" /><g
           id="g1209"
           transform="matrix(0.74009582,0,0,0.74009582,-11.497164,40.014204)"
           inkscape:path-effect="#path-effect1314"
           style="fill:#0084ff;fill-opacity:1"><path
             style="color:#000000;fill:#0084ff;fill-opacity:1;fill-rule:evenodd;stroke-linecap:round;-inkscape-stroke:none"
             d="m 14.574041,131.86123 c -10.973685,-0.38658 -21.5087263,7.163 -24.851346,17.83109 -3.766517,12.02098 2.2198955,25.66537 15.350743,29.39688 15.223429,4.32616 30.492106,-6.72403 31.516231,-22.75605 0.880282,-13.78024 -9.69348,-24.03784 -22.015628,-24.47192 z m -0.5982,2.97368 c 10.474517,0.52587 19.033245,9.33846 18.025541,20.8481 C 30.859246,168.72809 18.493998,177.6667 6.0090012,174.43846 -5.0390811,171.58177 -10.357062,160.37759 -7.3083846,150.113 c 2.751396,-9.26366 11.803041,-15.75409 21.2842256,-15.27809 z m -0.864969,4.2998 c -7.2084525,-0.51915 -14.1913077,4.4912 -16.1321759,11.58575 -2.0969653,7.66515 2.17554121,15.76496 10.2637857,17.58631 8.8272632,1.98777 17.6117292,-4.35468 18.6985202,-13.48248 0.993631,-8.34538 -5.058932,-15.12989 -12.83013,-15.68958 z m -0.650415,3.23325 c 5.872594,0.52001 10.190117,5.66634 9.316695,11.86633 -0.933022,6.62305 -7.237343,11.17046 -13.6880863,9.86407 C 2.0404312,162.87341 -1.2903917,156.99802 0.20014402,151.17693 1.6050729,145.69016 6.9160268,141.877 12.460457,142.36796 Z m -0.888491,4.41673 c -3.1481824,-0.35041 -6.2450356,1.87648 -6.9741476,5.01537 -0.7538007,3.24517 1.2433901,6.45708 4.550255,7.03392 3.4228816,0.59709 6.8291046,-1.85529 7.4155676,-5.33842 0.566069,-3.36202 -1.739851,-6.34892 -4.991675,-6.71087 z m -0.707735,3.51819 c 1.304442,0.16903 2.142765,1.32668 1.892593,2.65327 -0.253662,1.34509 -1.506303,2.24524 -2.8367417,2.04014 -1.3126083,-0.20236 -2.1037712,-1.39176 -1.8243559,-2.7006 0.2756606,-1.29124 1.4811257,-2.15963 2.7685046,-1.99281 z"
             id="path1207"
             inkscape:original-d="m 13.359036,133.29459 c -13.97395969,0 -25.343746,11.37175 -25.34375,25.3457 -3e-6,13.97397 11.36978681,25.34375 25.34375,25.34375 13.973965,0 25.345707,-11.36978 25.345703,-25.34375 -3e-6,-13.97395 -11.371742,-25.3457 -25.345703,-25.3457 z m 0,4 c 11.812202,0 21.345701,9.53351 21.345703,21.3457 3e-6,11.81221 -9.533497,21.34375 -21.345703,21.34375 -11.812205,0 -21.3437521,-9.53154 -21.3437501,-21.34375 3e-6,-11.81219 9.5315493,-21.3457 21.3437501,-21.3457 z m 0,5.54883 c -8.7006995,0 -15.796874,7.09617 -15.7968747,15.79687 7e-7,8.7007 7.0961752,15.79688 15.7968747,15.79688 8.700701,0 15.796874,-7.09618 15.796875,-15.79688 -1e-6,-8.7007 -7.096174,-15.79687 -15.796875,-15.79687 z m 0,4 c 6.538943,0 11.796875,5.25793 11.796875,11.79687 0,6.53895 -5.257932,11.79688 -11.796875,11.79688 -6.5389418,0 -11.7968742,-5.25793 -11.7968747,-11.79688 5e-7,-6.53894 5.2579329,-11.79687 11.7968747,-11.79687 z m 0,5.24023 c -3.5969138,0 -6.5546868,2.95973 -6.5546868,6.55664 0,3.59692 2.957773,6.55469 6.5546868,6.55469 3.596914,0 6.556641,-2.95777 6.556641,-6.55469 0,-3.59691 -2.959727,-6.55664 -6.556641,-6.55664 z m 0,4 c 1.435158,0 2.556641,1.12148 2.556641,2.55664 0,1.43516 -1.121483,2.55469 -2.556641,2.55469 -1.435157,0 -2.554687,-1.11953 -2.554687,-2.55469 0,-1.43516 1.11953,-2.55664 2.554687,-2.55664 z" /></g></g></g></g></svg>
