<?xml version="1.0" encoding="UTF-8" standalone="no"?>
<!-- Created with Inkscape (http://www.inkscape.org/) -->

<svg
   width="600"
   height="60"
   viewBox="0 0 158.75 15.875"
   version="1.1"
   id="svg61"
   xml:space="preserve"
   inkscape:version="1.2.2 (b0a8486541, 2022-12-01)"
   sodipodi:docname="map-toolbox.svg"
   inkscape:export-filename="../../public/images/map-toolbox.png"
   inkscape:export-xdpi="96"
   inkscape:export-ydpi="96"
   xmlns:inkscape="http://www.inkscape.org/namespaces/inkscape"
   xmlns:sodipodi="http://sodipodi.sourceforge.net/DTD/sodipodi-0.dtd"
   xmlns="http://www.w3.org/2000/svg"
   xmlns:svg="http://www.w3.org/2000/svg"><sodipodi:namedview
     id="namedview63"
     pagecolor="#ffffff"
     bordercolor="#666666"
     borderopacity="1.0"
     inkscape:showpageshadow="2"
     inkscape:pageopacity="0.0"
     inkscape:pagecheckerboard="0"
     inkscape:deskcolor="#d1d1d1"
     inkscape:document-units="px"
     showgrid="true"
     inkscape:zoom="2.1568741"
     inkscape:cx="267.98041"
     inkscape:cy="102.4631"
     inkscape:window-width="1920"
     inkscape:window-height="1048"
     inkscape:window-x="0"
     inkscape:window-y="-5"
     inkscape:window-maximized="1"
     inkscape:current-layer="layer1"><inkscape:grid
       type="xygrid"
       id="grid695"
       spacingx="7.9375"
       empspacing="2"
       spacingy="3.96875" /></sodipodi:namedview><defs
     id="defs58"><inkscape:path-effect
       effect="powerclip"
       id="path-effect2236"
       is_visible="true"
       lpeversion="1"
       inverse="true"
       flatten="false"
       hide_clip="false"
       message="Use fill-rule evenodd on &lt;b&gt;fill and stroke&lt;/b&gt; dialog if no flatten result after convert clip to paths." /><clipPath
       clipPathUnits="userSpaceOnUse"
       id="clipPath2174"><circle
         style="fill:#ff2a2a;fill-rule:evenodd;stroke:none;stroke-width:2.73997;stroke-linecap:round;stroke-dasharray:none;stroke-opacity:1"
         id="circle2176"
         cx="10.140454"
         cy="10.169776"
         r="6.718461" /></clipPath><clipPath
       clipPathUnits="userSpaceOnUse"
       id="clipPath2232"><circle
         style="display:none;fill:#00ff00;fill-rule:evenodd;stroke:none;stroke-width:2.30022;stroke-linecap:round;stroke-dasharray:none;stroke-opacity:1"
         id="circle2234"
         cx="9.826685"
         cy="10.309631"
         r="6.8081141" /></clipPath></defs><g
     inkscape:label="Layer 1"
     inkscape:groupmode="layer"
     id="layer1"><g
       style="fill:#343434;fill-opacity:1"
       id="g446"
       transform="matrix(0.38484848,0,0,0.38484848,83.079167,3.7041667)"><path
         d="M 11,0 A 11,11 0 1 0 22,11 11.013,11.013 0 0 0 11,0 Z M 7.149,2.878 A 4.063,4.063 0 0 1 6.376,5.07 C 5.982,4.87 5.516,4.613 4.998,4.313 A 9.025,9.025 0 0 1 7.149,2.878 Z M 5.183,17.855 A 9,9 0 0 1 2.191,12.843 C 5.8,11.618 7.34,11.433 7.94,11.433 v 0 a 1.775,1.775 0 0 1 -0.523,0.735 2.157,2.157 0 0 0 -0.648,0.959 1.485,1.485 0 0 0 0.5,1.523 c 0.046,0.427 -0.983,1.762 -1.664,2.646 -0.14,0.18 -0.281,0.374 -0.422,0.559 z M 11,20 A 8.937,8.937 0 0 1 6.844,18.975 c 0.115,-0.152 0.231,-0.311 0.344,-0.458 1.353,-1.755 2.748,-3.566 1.709,-5 A 3.382,3.382 0 0 0 10,11 1.452,1.452 0 0 0 9.381,9.8 C 8.918,9.473 7.986,8.811 2.01,10.792 A 8.941,8.941 0 0 1 3.64,5.837 c 0.738,0.436 1.379,0.791 1.913,1.058 a 1.838,1.838 0 0 0 1.92,-0.152 c 1.12,-0.784 1.7,-2.8 1.713,-4.559 a 8.911,8.911 0 0 1 4.787,0.331 C 10.758,3.888 10,5.653 10,7 c 0,3.034 2.017,3.268 3.1,3.394 C 14,10.499 14,10.499 14,11 a 6.574,6.574 0 0 1 -0.526,2.455 c -0.363,0.973 -0.911,2.445 1.079,3.44 a 2.339,2.339 0 0 0 1.061,0.243 6.4,6.4 0 0 0 2.643,-0.837 A 8.987,8.987 0 0 1 11,20 Z m 8.635,-6.485 a 14.445,14.445 0 0 0 -1.969,0.851 c -0.786,0.387 -1.862,0.917 -2.219,0.739 A 2.835,2.835 0 0 1 15.111,14.912 4.1,4.1 0 0 1 15.348,14.152 8.476,8.476 0 0 0 16,11 C 16,8.717 14.2,8.508 13.33,8.407 12.282,8.286 12,8.253 12,7 12,5.372 14.545,4.323 16.354,3.783 a 8.939,8.939 0 0 1 3.281,9.732 z"
         id="path1555"
         style="fill:#343434;fill-opacity:1" /></g><g
       style="fill:#343434;fill-opacity:1"
       id="g466"
       transform="matrix(0.42337766,0,0,0.42337766,113.98081,2.8563319)"><path
         d="m 15.716,4.354 a 8.031,8.031 0 1 0 -2.7,13.138 l 3.58,3.581 A 3.1643032,3.1643032 0 0 0 21.073,16.6 l -3.58,-3.58 A 8.046,8.046 0 0 0 15.716,4.354 Z M 10.034,16.069 A 6.033,6.033 0 1 1 14.3,14.3 6,6 0 0 1 10.034,16.069 Z m 9.625,1.943 a 1.165,1.165 0 0 1 -1.647,1.647 l -3.186,-3.186 a 8.214,8.214 0 0 0 0.89,-0.757 8.214,8.214 0 0 0 0.757,-0.89 z"
         id="path773"
         style="fill:#343434;fill-opacity:1" /><path
         style="color:#000000;fill:#343434;stroke-linecap:round;stroke-linejoin:round;-inkscape-stroke:none;fill-opacity:1"
         d="M 11.232422,6.0273437 A 0.56698669,0.56698669 0 0 0 10.685547,6.4472656 L 9.1328125,12.244141 7.8359375,7.4082031 a 0.56698669,0.56698669 0 0 0 -1.09375,0 L 6.0488281,9.9960938 H 4.9785156 A 0.56693,0.56693 0 0 0 4.4121094,10.5625 0.56693,0.56693 0 0 0 4.9785156,11.128906 H 6.4824219 A 0.56698669,0.56698669 0 0 0 7.03125,10.708984 L 7.2890625,9.7441406 8.5839844,14.580078 a 0.56698669,0.56698669 0 0 0 1.0957031,0 l 1.5527345,-5.7968749 1.166016,4.3535159 a 0.56698669,0.56698669 0 0 0 1.095703,0 l 0.537109,-2.007813 h 1.251953 a 0.56693,0.56693 0 0 0 0.56836,-0.566406 0.56693,0.56693 0 0 0 -0.56836,-0.5664062 h -1.6875 A 0.56698669,0.56698669 0 0 0 13.048828,10.416016 L 12.945313,10.798828 11.779297,6.4472656 A 0.56698669,0.56698669 0 0 0 11.232422,6.0273437 Z"
         id="path3748" /></g><g
       style="fill:#343434;fill-opacity:1"
       id="g477"
       transform="matrix(0.38484848,0,0,0.38484848,146.19432,3.3193182)"><path
         d="M 12,1 A 11,11 0 1 0 23,12 11.013,11.013 0 0 0 12,1 Z m 0,20 a 9,9 0 1 1 9,-9 9.011,9.011 0 0 1 -9,9 z M 13,8 H 11 V 6 h 2 z m 0,10 h -2 v -8 h 2 z"
         id="path468"
         style="fill:#343434;fill-opacity:1" /></g><g
       style="fill:#343434;fill-opacity:1"
       id="g484"
       transform="matrix(0.38487321,0,0,0.38487321,99.718689,3.7041667)"><path
         d="m 0.64058739,5.2555034 8.00000001,3.333 a 0.989,0.989 0 0 0 0.77,0 l 7.9999996,-3.333 a 1,1 0 0 0 0,-1.845 L 9.4105874,0.07650336 a 1.007,1.007 0 0 0 -0.77,0 L 0.64058739,3.4105034 a 1,1 0 0 0 0,1.845 z m 8.38500001,-3.173 5.3999996,2.25 -5.3999996,2.25 -5.4,-2.25 z m 8.3849996,7.617 -7.9999996,3.3329996 a 1,1 0 0 1 -0.77,0 L 0.64058739,9.6995034 a 1.000077,1.000077 0 1 1 0.77000001,-1.846 l 7.615,3.1739996 7.6149996,-3.1729996 a 1.000077,1.000077 0 1 1 0.77,1.846 z m 0,4.4439996 -7.9999996,3.334 a 1,1 0 0 1 -0.77,0 l -8.00000001,-3.334 a 1.000077,1.000077 0 1 1 0.77000001,-1.846 l 7.615,3.174 7.6149996,-3.172 a 1.000077,1.000077 0 1 1 0.77,1.846 z m 0.538,3.137 a 1,1 0 0 1 -0.538,1.307 l -7.9999996,3.334 a 1,1 0 0 1 -0.77,0 l -8.00000001,-3.334 a 1,1 0 1 1 0.77000001,-1.845 l 7.615,3.174 7.6149996,-3.173 a 1,1 0 0 1 1.308,0.538 z"
         id="path58"
         style="fill:#343434;fill-opacity:1" /></g><g
       style="fill:#343434;fill-opacity:1"
       id="g495"
       transform="matrix(0.38484848,0,0,0.38484848,130.31938,3.3193182)"><path
         d="m 10,21 h 4 a 2,2 0 0 1 -4,0 z M 3.076,18.383 a 1,1 0 0 1 0.217,-1.09 L 5,15.586 V 10 A 7.006,7.006 0 0 1 11,3.08 V 2 a 1,1 0 0 1 2,0 V 3.08 A 7.006,7.006 0 0 1 19,10 v 5.586 l 1.707,1.707 A 1,1 0 0 1 20,19 H 4 A 1,1 0 0 1 3.076,18.383 Z M 6.414,17 H 17.586 L 17.293,16.707 A 1,1 0 0 1 17,16 V 10 A 5,5 0 0 0 7,10 v 6 a 1,1 0 0 1 -0.293,0.707 z"
         id="path486"
         style="fill:#343434;fill-opacity:1" /></g><g
       style="fill:#343434;fill-opacity:1"
       id="g503"
       transform="matrix(0.46413001,0,0,-0.46413001,35.454167,10.546375)"><path
         d="m 2.0000154,10.242 c 0,1.333333 -2.000000022002,1.333333 -2.000000022002,0 C -0.01409662,1.8498513 9.7041404,-2.81361 16.242015,2.4479996 V 0.99999963 c 0,-1.3333328 2,-1.3333328 2,0 V 4.9999996 c 0,0.5522847 -0.447715,1 -1,1 h -4 c -1.333333,0 -1.333333,-2 0,-2 h 1.743 C 9.7530474,-0.19963407 1.9881254,3.5330302 2.0000154,10.242 Z"
         id="path518"
         style="fill:#343434;fill-opacity:1" /></g><g
       style="fill:#343434;fill-opacity:1"
       id="g510"
       transform="matrix(0.46413,0,0,0.46413,19.579167,5.3286253)"><path
         d="m 16.242,10.242 c 0,1.333333 2,1.333333 2,0 C 18.256112,1.8498513 8.5378754,-2.81361 2,2.4479996 V 0.99999963 c 0,-1.3333328 -2.000000022001648,-1.3333328 -2.000000022001648,0 V 4.9999996 c 0,0.5522847 0.447715002001648,1 1.000000002001648,1 H 5 c 1.333333,0 1.333333,-2 0,-2 H 3.257 C 8.4889684,-0.19963407 16.25389,3.5330302 16.242,10.242 Z"
         id="path518-3"
         style="fill:#343434;fill-opacity:1" /></g><g
       style="fill:#343434;fill-opacity:1"
       id="g521"
       transform="matrix(0.46808688,0,0,0.46808688,2.3204574,2.3410089)"><path
         d="m 2,21 h 8 a 1,1 0 0 0 0,-2 H 3.071 A 7.011,7.011 0 0 1 10,13 5.044,5.044 0 1 0 6.623,11.663 9.01,9.01 0 0 0 1,20 1,1 0 0 0 2,21 Z M 10,5 A 3,3 0 1 1 7,8 3,3 0 0 1 10,5 Z M 22.546,15.6 H 21.839 A 0.468,0.468 0 0 1 21.411,15.3 V 15.294 A 0.467,0.467 0 0 1 21.5,14.778 l 0.5,-0.5 a 0.454,0.454 0 0 0 0,-0.643 l -0.63,-0.63 a 0.454,0.454 0 0 0 -0.643,0 l -0.5,0.5 a 0.467,0.467 0 0 1 -0.516,0.089 h -0.006 a 0.468,0.468 0 0 1 -0.3,-0.428 V 12.459 A 0.454,0.454 0 0 0 18.946,12 H 18.054 A 0.454,0.454 0 0 0 17.6,12.454 v 0.707 a 0.468,0.468 0 0 1 -0.3,0.428 H 17.294 A 0.467,0.467 0 0 1 16.778,13.5 l -0.5,-0.5 a 0.454,0.454 0 0 0 -0.643,0 l -0.63,0.63 a 0.454,0.454 0 0 0 0,0.643 l 0.5,0.5 a 0.467,0.467 0 0 1 0.089,0.516 v 0.006 a 0.468,0.468 0 0 1 -0.428,0.3 h -0.707 a 0.454,0.454 0 0 0 -0.454,0.454 v 0.892 a 0.454,0.454 0 0 0 0.454,0.454 h 0.707 a 0.468,0.468 0 0 1 0.428,0.3 v 0.006 a 0.467,0.467 0 0 1 -0.089,0.516 l -0.5,0.5 a 0.454,0.454 0 0 0 0,0.643 l 0.63,0.63 a 0.454,0.454 0 0 0 0.643,0 l 0.5,-0.5 a 0.467,0.467 0 0 1 0.516,-0.089 H 17.3 a 0.468,0.468 0 0 1 0.3,0.428 v 0.707 a 0.454,0.454 0 0 0 0.454,0.454 h 0.892 A 0.454,0.454 0 0 0 19.4,20.536 v -0.707 a 0.468,0.468 0 0 1 0.3,-0.428 h 0.006 a 0.467,0.467 0 0 1 0.516,0.089 l 0.5,0.5 a 0.454,0.454 0 0 0 0.643,0 l 0.63,-0.63 a 0.454,0.454 0 0 0 0,-0.643 l -0.5,-0.5 a 0.467,0.467 0 0 1 -0.089,-0.516 v -0.006 a 0.468,0.468 0 0 1 0.428,-0.3 h 0.707 A 0.454,0.454 0 0 0 23,16.946 V 16.054 A 0.454,0.454 0 0 0 22.546,15.6 Z M 18.5,17.85 a 1.35,1.35 0 1 1 1.35,-1.35 1.349,1.349 0 0 1 -1.35,1.35 z"
         id="path512"
         style="fill:#343434;fill-opacity:1" /></g><g
       style="fill:#343434;fill-opacity:1"
       id="g528"
       transform="matrix(0.42389007,0,0,0.42389007,51.330056,3.7041665)"><path
         d="m 8.0397884,16.074 a 8.06,8.06 0 0 0 2.9839996,-0.573 l 3.58,3.581 a 3.164,3.164 0 0 0 4.475,-4.473 l -3.58,-3.58 a 8.038,8.038 0 1 0 -7.4589996,5.047 z m 9.6249996,-0.053 a 1.165,1.165 0 0 1 -1.647,1.647 l -3.186,-3.186 a 8.214,8.214 0 0 0 0.89,-0.757 8.214,8.214 0 0 0 0.757,-0.89 z M 3.7737884,3.7769998 a 6.033,6.033 0 1 1 -1.768,4.266 5.992,5.992 0 0 1 1.768,-4.266 z m 0.267,4.267 a 1,1 0 0 1 1,-1 h 2 v -2 a 1,1 0 0 1 2,0 v 2 h 1.9999996 a 1,1 0 0 1 0,2 H 9.0407884 V 11.044 a 1,1 0 0 1 -2,0 V 9.0439998 h -2 a 1,1 0 0 1 -1,-1 z"
         id="path1257"
         style="fill:#343434;fill-opacity:1" /></g><g
       style="fill:#343434;fill-opacity:1"
       id="g535"
       transform="matrix(0.42351427,0,0,0.42351427,67.204167,3.7028009)"><path
         d="m 13.708999,2.3514503 a 8.031,8.031 0 1 0 -2.7,13.1379997 l 3.58,3.581 a 3.1643032,3.1643032 0 0 0 4.477,-4.473 l -3.58,-3.58 a 8.046,8.046 0 0 0 -1.777,-8.6659997 z M 8.0269993,14.06645 a 6.033,6.033 0 1 1 4.2659997,-1.769 6,6 0 0 1 -4.2659997,1.769 z m 9.6249997,1.943 a 1.165,1.165 0 0 1 -1.647,1.647 l -3.186,-3.186 a 8.214,8.214 0 0 0 0.89,-0.757 8.214,8.214 0 0 0 0.757,-0.89 z m -5.624,-7.9769997 a 1,1 0 0 1 -1,1 H 5.0279993 a 1,1 0 0 1 0,-2 h 5.9999997 a 1,1 0 0 1 1,1 z"
         id="path1382"
         style="fill:#343434;fill-opacity:1" /></g></g></svg>
